<svg width="700" height="995" viewBox="0 0 700 995" fill="none" xmlns="http://www.w3.org/2000/svg">
<g opacity="0.1" clip-path="url(#clip0_40_243)">
<path d="M956.85 297.917L930.703 324.064C920.697 334.07 920.697 350.293 930.703 360.299C940.709 370.305 940.709 386.528 930.703 396.534L645.36 681.877C635.474 691.763 619.445 691.763 609.559 681.877L609.125 681.443C599.239 671.557 599.239 655.528 609.125 645.642L635.489 619.278C645.495 609.272 645.495 593.049 635.489 583.043C625.483 573.037 609.26 573.037 599.254 583.043L591.678 590.619C581.792 600.505 565.763 600.505 555.877 590.619L555.443 590.185C545.557 580.299 529.528 580.299 519.642 590.185C509.756 600.071 493.727 600.071 483.841 590.185L483.407 589.751C473.521 579.865 473.521 563.836 483.407 553.95L511.999 525.358C521.885 515.472 521.885 499.443 511.999 489.557L511.565 489.123C501.679 479.237 501.679 463.208 511.565 453.322L796.908 167.98C806.914 157.974 823.137 157.974 833.143 167.98C843.149 177.986 843.149 194.209 833.143 204.215L804.551 232.807C794.785 242.573 794.785 258.408 804.551 268.174L805.419 269.041C815.185 278.807 831.02 278.807 840.786 269.041C850.792 259.035 867.015 259.035 877.02 269.041C887.026 279.047 903.249 279.047 913.255 269.041L920.614 261.682C930.62 251.676 946.843 251.676 956.849 261.682C966.856 271.688 966.856 287.911 956.85 297.917Z" fill="#081C3C"/>
<path d="M732.895 -9.37787L872.717 -149.2C882.723 -159.206 898.946 -159.206 908.952 -149.2C918.958 -139.194 918.958 -122.971 908.952 -112.965L853.243 -57.2559C843.237 -47.2499 843.237 -31.0269 853.243 -21.0209C863.249 -11.0149 879.472 -11.0149 889.478 -21.0209L967.836 -99.3789C977.842 -109.385 994.065 -109.385 1004.07 -99.3789C1014.08 -89.3729 1014.08 -73.1499 1004.07 -63.1439L987.85 -46.9229C977.844 -36.9169 977.844 -20.6939 987.85 -10.6879C997.856 -0.681885 997.856 15.5411 987.85 25.5471L953.369 60.0291C943.363 70.0351 943.363 86.2581 953.369 96.2641L954.246 97.1411C963.768 106.663 979.206 106.663 988.727 97.1411C998.733 87.1351 1014.96 87.1351 1024.96 97.1411C1034.97 107.147 1034.97 123.37 1024.96 133.376L663.345 494.993C653.581 504.757 637.751 504.757 627.987 494.993L627.11 494.116C617.346 484.352 601.516 484.352 591.752 494.116C581.988 503.88 566.158 503.88 556.394 494.116L555.517 493.239C545.753 483.475 545.753 467.645 555.517 457.881L590.875 422.523C600.639 412.759 600.639 396.929 590.875 387.165L589.998 386.288C580.234 376.524 580.234 360.694 589.998 350.93L606.657 334.271C616.663 324.265 616.663 308.042 606.657 298.036C596.651 288.03 580.428 288.03 570.422 298.036L491.625 376.833C481.861 386.597 466.031 386.597 456.267 376.833L455.39 375.956C445.626 366.192 445.626 350.362 455.39 340.598L511.537 284.451C521.543 274.445 521.543 258.222 511.537 248.216C501.531 238.21 485.308 238.21 475.302 248.216L335.042 388.476C325.278 398.24 309.448 398.24 299.684 388.476L298.807 387.599C289.043 377.835 289.043 362.005 298.807 352.241L660.424 -9.37589C670.43 -19.3819 686.653 -19.3819 696.659 -9.37589C706.666 0.62811 722.889 0.628124 732.895 -9.37787Z" fill="#4D5D77"/>
<path d="M456.47 400.561C456.47 414.712 444.999 426.183 430.848 426.183C416.697 426.183 405.226 414.712 405.226 400.561C405.226 386.411 416.697 374.939 430.848 374.939C444.999 374.939 456.47 386.411 456.47 400.561Z" fill="#081C3C"/>
<path d="M148.727 301.148C148.727 315.299 137.256 326.77 123.105 326.77C108.955 326.77 97.4832 315.299 97.4832 301.148C97.4832 286.997 108.955 275.526 123.105 275.526C137.256 275.526 148.727 286.997 148.727 301.148Z" fill="#213555"/>
<path d="M1117.49 624.522L1117.05 624.088C1107.16 614.203 1091.14 614.204 1081.25 624.09L1077 628.34C1067.11 638.226 1051.08 638.227 1041.2 628.342L1040.76 627.908C1030.88 618.023 1014.85 618.024 1004.96 627.91L966.633 666.238C956.627 676.244 940.404 676.244 930.398 666.238C920.392 656.232 920.392 640.009 930.398 630.003L987.045 573.356C996.931 563.47 996.931 547.442 987.044 537.556L986.61 537.122C976.723 527.236 960.694 527.237 950.808 537.123L826.147 661.784C816.141 671.79 799.918 671.79 789.912 661.784C779.906 651.778 779.906 635.555 789.912 625.549L914.574 500.887C924.46 491.001 924.46 474.972 914.574 465.086L914.14 464.652C904.253 454.766 888.224 454.767 878.338 464.653L592.996 749.994C582.99 760 582.99 776.223 592.996 786.229C603.002 796.235 603.002 812.458 592.996 822.464L468.551 946.909C458.545 956.915 458.545 973.138 468.551 983.144C478.557 993.15 494.78 993.15 504.786 983.144L629.232 858.699C639.238 848.693 655.461 848.693 665.467 858.699C675.473 868.705 675.473 884.928 665.467 894.934L609.038 951.363C599.032 961.369 599.032 977.592 609.038 987.598C619.044 997.604 635.267 997.604 645.273 987.598L683.387 949.484C693.393 939.478 709.616 939.478 719.622 949.484C729.628 959.49 745.851 959.49 755.857 949.484L759.677 945.664C769.683 935.658 785.906 935.658 795.912 945.664C805.918 955.67 822.141 955.67 832.147 945.664L1117.49 660.322C1127.37 650.437 1127.37 634.408 1117.49 624.522Z" fill="#213555"/>
<path d="M586.91 807.434C586.91 821.585 575.439 833.056 561.288 833.056C547.137 833.056 535.666 821.585 535.666 807.434C535.666 793.283 547.137 781.812 561.288 781.812C575.439 781.812 586.91 793.283 586.91 807.434Z" fill="#213555"/>
</g>
<defs>
<clipPath id="clip0_40_243">
<rect width="995" height="1125" fill="white" transform="matrix(4.37114e-08 1 1 -4.37114e-08 0 6.10352e-05)"/>
</clipPath>
</defs>
</svg>
