<svg width="734" height="717" viewBox="0 0 734 717" fill="none" xmlns="http://www.w3.org/2000/svg">
    <path
        d="M327.681 -176.39C317.897 -166.606 302.034 -166.606 292.249 -176.39L217.566 -251.073C207.782 -260.857 191.919 -260.857 182.134 -251.073C172.35 -241.289 156.487 -241.289 146.702 -251.073L131.035 -266.74C121.251 -276.524 105.388 -276.524 95.6031 -266.74C85.8191 -256.956 85.8191 -241.093 95.6031 -231.308L347.445 20.533C357.229 30.317 373.092 30.317 382.877 20.533C392.661 10.749 408.524 10.749 418.309 20.533L433.976 36.2C443.76 45.9841 459.623 45.9841 469.408 36.2C479.192 26.416 495.055 26.416 504.839 36.2L579.522 110.883C589.306 120.667 605.169 120.667 614.953 110.883C624.737 101.099 624.737 85.236 614.953 75.452L573.044 33.5431C563.26 23.7591 563.26 7.89605 573.044 -1.88795C582.828 -11.6719 582.828 -27.5349 573.044 -37.32L518.402 -91.962C508.618 -101.746 508.618 -117.609 518.402 -127.393C528.186 -137.177 544.049 -137.177 553.833 -127.393L575.701 -105.525C585.485 -95.7409 601.348 -95.7409 611.133 -105.525C620.917 -115.309 636.78 -115.309 646.565 -105.525L691.131 -60.959C700.915 -51.175 716.778 -51.175 726.563 -60.959C736.347 -70.743 736.347 -86.606 726.563 -96.391L681.997 -140.957C672.213 -150.741 672.213 -166.604 681.997 -176.389C691.781 -186.173 691.781 -202.036 681.997 -211.821L430.156 -463.662C420.372 -473.446 404.509 -473.446 394.724 -463.662C384.94 -453.878 384.94 -438.015 394.724 -428.23L439.29 -383.664C449.074 -373.88 449.074 -358.017 439.29 -348.233C429.506 -338.449 413.643 -338.449 403.858 -348.233L359.292 -392.799C349.508 -402.583 333.645 -402.583 323.86 -392.799C314.076 -383.015 298.213 -383.015 288.428 -392.799L266.56 -414.667C256.776 -424.451 240.913 -424.451 231.128 -414.667C221.344 -404.883 221.344 -389.02 231.128 -379.235L285.77 -324.593C295.554 -314.809 295.554 -298.946 285.77 -289.161C275.986 -279.377 275.986 -263.514 285.77 -253.729L327.679 -211.82C337.465 -202.037 337.465 -186.174 327.681 -176.39Z"
        fill="#081C3C" />
    <path
        d="M-222.949 18.917L-196.802 45.064C-186.796 55.07 -186.796 71.293 -196.802 81.299C-206.808 91.305 -206.808 107.528 -196.802 117.534L88.5409 402.877C98.4269 412.763 114.456 412.763 124.342 402.877L124.776 402.443C134.662 392.557 134.662 376.528 124.776 366.642L98.4119 340.278C88.4059 330.272 88.4059 314.049 98.4119 304.043C108.418 294.037 124.641 294.037 134.647 304.043L142.223 311.619C152.109 321.505 168.138 321.505 178.024 311.619L178.458 311.185C188.344 301.299 204.373 301.299 214.259 311.185C224.145 321.071 240.174 321.071 250.06 311.185L250.494 310.751C260.38 300.865 260.38 284.836 250.494 274.95L221.902 246.358C212.016 236.472 212.016 220.443 221.902 210.557L222.336 210.123C232.222 200.237 232.222 184.208 222.336 174.322L-63.0071 -111.02C-73.0132 -121.026 -89.2361 -121.026 -99.2421 -111.02C-109.248 -101.014 -109.248 -84.791 -99.2421 -74.785L-70.6501 -46.193C-60.8841 -36.427 -60.8841 -20.592 -70.6501 -10.826L-71.5181 -9.95899C-81.2841 -0.192993 -97.1191 -0.192993 -106.885 -9.95899C-116.891 -19.965 -133.114 -19.965 -143.119 -9.95899C-153.125 0.047002 -169.348 0.0470013 -179.354 -9.959L-186.713 -17.318C-196.719 -27.324 -212.942 -27.324 -222.948 -17.318C-232.955 -7.312 -232.955 8.911 -222.949 18.917Z"
        fill="#081C3C" />
    <path
        d="M1.00598 -288.378L-138.816 -428.2C-148.822 -438.206 -165.045 -438.206 -175.051 -428.2C-185.057 -418.194 -185.057 -401.971 -175.051 -391.965L-119.342 -336.256C-109.336 -326.25 -109.336 -310.027 -119.342 -300.021C-129.348 -290.015 -145.571 -290.015 -155.577 -300.021L-233.935 -378.379C-243.941 -388.385 -260.164 -388.385 -270.17 -378.379C-280.176 -368.373 -280.176 -352.15 -270.17 -342.144L-253.949 -325.923C-243.943 -315.917 -243.943 -299.694 -253.949 -289.688C-263.955 -279.682 -263.955 -263.459 -253.949 -253.453L-219.468 -218.971C-209.462 -208.965 -209.462 -192.742 -219.468 -182.736L-220.345 -181.859C-229.867 -172.337 -245.305 -172.337 -254.826 -181.859C-264.832 -191.865 -281.055 -191.865 -291.061 -181.859C-301.067 -171.853 -301.067 -155.63 -291.061 -145.624L70.556 215.993C80.32 225.757 96.1499 225.757 105.914 215.993L106.791 215.116C116.555 205.352 132.385 205.352 142.149 215.116C151.913 224.88 167.743 224.88 177.507 215.116L178.384 214.239C188.148 204.475 188.148 188.645 178.384 178.881L143.026 143.523C133.262 133.759 133.262 117.929 143.026 108.165L143.903 107.288C153.667 97.5241 153.667 81.6941 143.903 71.9301L127.244 55.2711C117.238 45.2651 117.238 29.0421 127.244 19.0361C137.25 9.03005 153.473 9.03005 163.479 19.0361L242.276 97.8331C252.04 107.597 267.87 107.597 277.634 97.8331L278.511 96.956C288.275 87.1921 288.275 71.3621 278.511 61.5981L222.364 5.45107C212.358 -4.55494 212.358 -20.7779 222.364 -30.7839C232.37 -40.79 248.593 -40.79 258.599 -30.7839L398.859 109.476C408.623 119.24 424.453 119.24 434.217 109.476L435.094 108.599C444.858 98.8351 444.858 83.0051 435.094 73.2411L73.4769 -288.376C63.4709 -298.382 47.2479 -298.382 37.2419 -288.376C27.2349 -278.372 11.012 -278.372 1.00598 -288.378Z"
        fill="#4D5D77" />
    <path
        d="M277.431 121.561C277.431 135.712 288.902 147.183 303.053 147.183C317.204 147.183 328.675 135.712 328.675 121.561C328.675 107.41 317.204 95.9391 303.053 95.9391C288.902 95.9391 277.431 107.41 277.431 121.561Z"
        fill="#081C3C" />
    <path
        d="M585.174 22.1481C585.174 36.2987 596.645 47.7701 610.796 47.7701C624.947 47.7701 636.418 36.2987 636.418 22.1481C636.418 7.99742 624.947 -3.47394 610.796 -3.47394C596.645 -3.47394 585.174 7.99742 585.174 22.1481Z"
        fill="#213555" />
    <path
        d="M-383.585 345.522L-383.151 345.088C-373.264 335.203 -357.235 335.204 -347.349 345.09L-343.099 349.34C-333.212 359.226 -317.184 359.227 -307.297 349.342L-306.863 348.908C-296.975 339.023 -280.946 339.024 -271.06 348.91L-232.732 387.238C-222.726 397.244 -206.503 397.244 -196.497 387.238C-186.491 377.232 -186.491 361.009 -196.497 351.003L-253.144 294.356C-263.03 284.47 -263.03 268.442 -253.143 258.556L-252.709 258.122C-242.822 248.236 -226.793 248.237 -216.907 258.123L-92.246 382.784C-82.2399 392.79 -66.017 392.79 -56.011 382.784C-46.005 372.778 -46.005 356.555 -56.011 346.549L-180.673 221.887C-190.559 212.001 -190.559 195.972 -180.673 186.086L-180.239 185.652C-170.352 175.766 -154.323 175.767 -144.437 185.653L140.905 470.994C150.911 481 150.911 497.223 140.905 507.229C130.899 517.235 130.899 533.458 140.905 543.464L265.35 667.909C275.356 677.915 275.356 694.138 265.35 704.144C255.344 714.15 239.121 714.15 229.115 704.144L104.669 579.699C94.6629 569.693 78.44 569.693 68.434 579.699C58.428 589.705 58.428 605.928 68.434 615.934L124.863 672.363C134.869 682.369 134.869 698.592 124.863 708.598C114.857 718.604 98.6339 718.604 88.6279 708.598L50.5139 670.484C40.5079 660.478 24.2849 660.478 14.2789 670.484C4.27293 680.49 -11.95 680.49 -21.956 670.484L-25.776 666.664C-35.782 656.658 -52.005 656.658 -62.011 666.664C-72.017 676.67 -88.24 676.67 -98.246 666.664L-383.589 381.322C-393.471 371.437 -393.471 355.408 -383.585 345.522Z"
        fill="#213555" />
    <path
        d="M146.991 528.434C146.991 542.585 158.462 554.056 172.613 554.056C186.764 554.056 198.235 542.585 198.235 528.434C198.235 514.283 186.764 502.812 172.613 502.812C158.462 502.812 146.991 514.283 146.991 528.434Z"
        fill="#213555" />
</svg>