<svg width="313" height="455" viewBox="0 0 313 455" fill="none" xmlns="http://www.w3.org/2000/svg">
<path d="M396.203 767.476L396.637 767.042C406.522 757.155 406.521 741.126 396.635 731.24L392.385 726.99C382.499 717.103 382.498 701.075 392.383 691.188L392.817 690.754C402.702 680.866 402.701 664.837 392.815 654.951L354.487 616.623C344.481 606.617 344.481 590.394 354.487 580.388C364.493 570.382 380.716 570.382 390.722 580.388L447.369 637.035C457.255 646.921 473.284 646.921 483.169 637.034L483.603 636.6C493.489 626.713 493.488 610.684 483.602 600.798L358.94 476.135C348.934 466.129 348.934 449.906 358.94 439.9C368.946 429.894 385.169 429.894 395.175 439.9L519.837 564.562C529.723 574.448 545.752 574.448 555.638 564.562L556.072 564.128C565.958 554.241 565.957 538.212 556.071 528.326L270.729 242.986C260.723 232.98 244.5 232.98 234.494 242.986C224.488 252.992 208.265 252.992 198.259 242.986L73.8138 118.54C63.8078 108.534 47.5848 108.534 37.5789 118.54C27.5729 128.546 27.5729 144.769 37.5789 154.775L162.025 279.221C172.031 289.227 172.031 305.45 162.025 315.456C152.019 325.462 135.796 325.462 125.79 315.456L69.3608 259.027C59.3548 249.021 43.1318 249.021 33.1258 259.027C23.1199 269.033 23.1199 285.256 33.1258 295.262L71.2398 333.376C81.2458 343.382 81.2458 359.605 71.2398 369.611C61.2338 379.617 61.2338 395.84 71.2398 405.846L75.0598 409.666C85.0658 419.672 85.0658 435.895 75.0598 445.901C65.0538 455.907 65.0538 472.13 75.0598 482.136L360.402 767.479C370.288 777.362 386.317 777.362 396.203 767.476Z" fill="#081C3C"/>
<path d="M304.228 294.611C294.444 304.395 278.581 304.395 268.796 294.611L194.114 219.928C184.33 210.144 168.467 210.144 158.682 219.928C148.898 229.712 133.035 229.712 123.251 219.928L107.583 204.26C97.7992 194.476 81.9361 194.476 72.1512 204.26C62.3672 214.044 62.3672 229.908 72.1512 239.692L323.993 491.534C333.777 501.318 349.64 501.318 359.425 491.534C369.209 481.75 385.072 481.75 394.856 491.534L410.523 507.201C420.307 516.985 436.17 516.985 445.955 507.201C455.739 497.417 471.602 497.417 481.386 507.201L556.069 581.884C565.853 591.668 581.716 591.668 591.5 581.884C601.284 572.1 601.284 556.237 591.5 546.452L549.591 504.543C539.807 494.759 539.807 478.896 549.591 469.111C559.375 459.327 559.375 443.464 549.591 433.679L494.95 379.038C485.166 369.254 485.166 353.391 494.95 343.606C504.734 333.822 520.597 333.822 530.382 343.606L552.25 365.474C562.034 375.258 577.897 375.258 587.682 365.474C597.466 355.69 613.329 355.69 623.114 365.474L667.68 410.04C677.464 419.824 693.327 419.824 703.112 410.04C712.896 400.256 712.896 384.393 703.112 374.609L658.546 330.043C648.762 320.259 648.762 304.396 658.546 294.611C668.33 284.827 668.33 268.964 658.546 259.18L406.703 7.33802C396.919 -2.44598 381.056 -2.44598 371.272 7.33802C361.488 17.122 361.488 32.985 371.272 42.769L415.838 87.335C425.622 97.119 425.622 112.982 415.838 122.767C406.054 132.551 390.191 132.551 380.406 122.767L335.84 78.201C326.056 68.417 310.193 68.417 300.408 78.201C290.624 87.985 274.761 87.985 264.977 78.201L243.109 56.333C233.325 46.549 217.462 46.549 207.677 56.333C197.893 66.117 197.893 81.98 207.677 91.764L262.319 146.406C272.103 156.19 272.103 172.053 262.319 181.837C252.535 191.621 252.535 207.484 262.319 217.268L304.228 259.177C314.013 268.964 314.013 284.827 304.228 294.611Z" fill="#4D5D77"/>
<path d="M0.000136209 423.033C0.000135591 437.184 11.4715 448.655 25.6221 448.655C39.7728 448.655 51.2441 437.184 51.2441 423.033C51.2441 408.882 39.7728 397.411 25.6221 397.411C11.4715 397.411 0.000136828 408.882 0.000136209 423.033Z" fill="#213555"/>
<path d="M150.463 33.414C150.463 47.5647 161.934 59.036 176.085 59.036C190.236 59.036 201.707 47.5647 201.707 33.414C201.707 19.2634 190.236 7.79202 176.085 7.79202C161.934 7.79202 150.463 19.2634 150.463 33.414Z" fill="#081C3C"/>
</svg>
