<svg width="269" height="406" viewBox="0 0 269 406" fill="none" xmlns="http://www.w3.org/2000/svg">
    <path
        d="M-127.753 767.476L-128.187 767.042C-138.072 757.155 -138.071 741.126 -128.185 731.24L-123.935 726.99C-114.049 717.103 -114.048 701.075 -123.933 691.188L-124.367 690.754C-134.252 680.866 -134.251 664.837 -124.365 654.951L-86.0368 616.623C-76.0308 606.617 -76.0309 590.394 -86.0368 580.388C-96.0428 570.382 -112.266 570.382 -122.272 580.388L-178.919 637.035C-188.805 646.921 -204.834 646.921 -214.719 637.034L-215.153 636.6C-225.039 626.713 -225.038 610.684 -215.152 600.798L-90.4899 476.135C-80.4839 466.129 -80.4839 449.906 -90.4899 439.9C-100.496 429.894 -116.719 429.894 -126.725 439.9L-251.387 564.562C-261.273 574.448 -277.302 574.448 -287.188 564.562L-287.622 564.128C-297.508 554.241 -297.507 538.212 -287.621 528.326L-2.27889 242.986C7.72712 232.98 23.9501 232.98 33.9561 242.986C43.9621 252.992 60.1851 252.992 70.1911 242.986L194.636 118.54C204.642 108.534 220.865 108.534 230.871 118.54C240.877 128.546 240.877 144.769 230.871 154.775L106.425 279.221C96.4191 289.227 96.4191 305.45 106.425 315.456C116.431 325.462 132.654 325.462 142.66 315.456L199.089 259.027C209.095 249.021 225.318 249.021 235.324 259.027C245.33 269.033 245.33 285.256 235.324 295.262L197.21 333.376C187.204 343.382 187.204 359.605 197.21 369.611C207.216 379.617 207.216 395.84 197.21 405.846L193.39 409.666C183.384 419.672 183.384 435.895 193.39 445.901C203.396 455.907 203.396 472.13 193.39 482.136L-91.9518 767.479C-101.838 777.362 -117.867 777.362 -127.753 767.476Z"
        fill="#dcdee1" />
    <path
        d="M-35.778 294.611C-25.994 304.395 -10.131 304.395 -0.345957 294.611L74.336 219.928C84.12 210.144 99.983 210.144 109.768 219.928C119.552 229.712 135.415 229.712 145.199 219.928L160.867 204.26C170.651 194.476 186.514 194.476 196.299 204.26C206.083 214.044 206.083 229.908 196.299 239.692L-55.543 491.534C-65.327 501.318 -81.1899 501.318 -90.9749 491.534C-100.759 481.75 -116.622 481.75 -126.406 491.534L-142.073 507.201C-151.857 516.985 -167.72 516.985 -177.505 507.201C-187.289 497.417 -203.152 497.417 -212.936 507.201L-287.619 581.884C-297.403 591.668 -313.266 591.668 -323.05 581.884C-332.834 572.1 -332.834 556.237 -323.05 546.452L-281.141 504.543C-271.357 494.759 -271.357 478.896 -281.141 469.111C-290.925 459.327 -290.925 443.464 -281.141 433.679L-226.5 379.038C-216.716 369.254 -216.716 353.391 -226.5 343.606C-236.284 333.822 -252.147 333.822 -261.932 343.606L-283.8 365.474C-293.584 375.258 -309.447 375.258 -319.232 365.474C-329.016 355.69 -344.879 355.69 -354.664 365.474L-399.23 410.04C-409.014 419.824 -424.877 419.824 -434.662 410.04C-444.446 400.256 -444.446 384.393 -434.662 374.609L-390.096 330.043C-380.312 320.259 -380.312 304.396 -390.096 294.611C-399.88 284.827 -399.88 268.964 -390.096 259.18L-138.253 7.33799C-128.469 -2.44601 -112.606 -2.44601 -102.822 7.33799C-93.038 17.122 -93.038 32.985 -102.822 42.769L-147.388 87.335C-157.172 97.119 -157.172 112.982 -147.388 122.767C-137.604 132.551 -121.741 132.551 -111.956 122.767L-67.39 78.201C-57.606 68.417 -41.743 68.417 -31.958 78.201C-22.174 87.985 -6.31097 87.985 3.47303 78.201L25.341 56.333C35.125 46.549 50.988 46.549 60.773 56.333C70.557 66.117 70.557 81.98 60.773 91.764L6.13102 146.406C-3.65297 156.19 -3.65297 172.053 6.13102 181.837C15.915 191.621 15.915 207.484 6.13103 217.268L-35.778 259.177C-45.563 268.964 -45.563 284.827 -35.778 294.611Z"
        fill="#dcdee1" />
    <path
        d="M268.45 423.033C268.45 437.184 256.979 448.655 242.828 448.655C228.677 448.655 217.206 437.184 217.206 423.033C217.206 408.882 228.677 397.411 242.828 397.411C256.979 397.411 268.45 408.882 268.45 423.033Z"
        fill="#dcdee1" />
    <path
        d="M117.987 33.414C117.987 47.5646 106.516 59.036 92.3652 59.036C78.2145 59.036 66.7432 47.5646 66.7432 33.414C66.7432 19.2634 78.2145 7.79199 92.3652 7.79199C106.516 7.79199 117.987 19.2634 117.987 33.414Z"
        fill="#dcdee1" />
</svg>