<svg width="597" height="597" viewBox="0 0 597 597" fill="none" xmlns="http://www.w3.org/2000/svg">
    <path opacity="0.28"
        d="M30.4755 433.458C22.3719 392.759 66.766 389.852 65.6317 372.719C65.4394 369.81 9.53159 325.182 55.1519 271.108C97.8912 220.449 147.051 253.861 153.09 258.284C153.276 258.42 153.521 258.236 153.443 258.02C150.738 250.447 128.729 185.794 154.386 154.439C184.765 117.316 223.919 134.869 241.608 133.665C270.233 131.716 287.44 61.6534 371.942 78.4936C495.781 103.172 439.852 219.178 439.852 219.178C439.852 219.178 513.351 171.3 543.183 238.025C570.614 299.381 546.153 358.069 469.493 371.564C462.57 372.784 457.087 378.195 456.074 385.151C453.886 400.189 455.193 419.724 426.104 451.202C388.569 491.818 266.901 479.358 266.901 479.358C266.901 479.358 218.903 460.274 168.214 478.592C126.431 493.694 41.1499 487.07 30.4755 433.458Z"
        fill="#D0E9F6" />
    <path opacity="0.28"
        d="M199.823 103.505C198.985 106.314 199.967 109.434 201.785 111.733C203.603 114.032 206.161 115.627 208.774 116.951C217.803 121.524 228.385 123.364 238.24 121.054C248.094 118.743 257.048 112.035 261.124 102.77C262.348 99.9903 263.093 96.6376 261.571 94.0096C260.913 92.8741 259.89 91.9929 258.808 91.2503C248.324 84.0457 235.796 88.8587 224.548 90.7368C216.295 92.1159 202.69 93.9009 199.823 103.505Z"
        fill="#D0E9F6" />
    <path opacity="0.28"
        d="M287.586 76.5044C287.315 75.8751 286.977 75.2495 286.439 74.8256C285.902 74.4017 285.211 74.2202 284.529 74.1486C281.069 73.7868 277.862 76.0292 275.511 78.5927C273.932 80.3144 272.546 82.238 270.957 83.9394C270.05 84.3024 269.129 84.6391 268.264 85.0845C266.506 85.9895 264.855 87.6527 264.992 89.6264C265.128 91.6037 266.978 93.0138 268.805 93.7827C273.825 95.8973 280.045 95.0281 284.113 91.4055C288.181 87.7829 289.738 81.5084 287.586 76.5044Z"
        fill="#D0E9F6" />
    <path opacity="0.28"
        d="M480.529 381.712C466.066 391.92 459.709 410.632 459.541 428.333C459.493 433.369 459.95 438.66 462.699 442.881C466.276 448.377 473.204 450.983 479.761 450.878C486.317 450.773 492.606 448.349 498.566 445.615C508.326 441.138 517.659 435.729 526.396 429.485C535.078 423.283 543.331 416.066 548.618 406.797C552.104 400.684 554.224 393.548 553.199 386.586C548.775 356.551 496.281 370.596 480.529 381.712Z"
        fill="#D0E9F6" />
    <path opacity="0.28"
        d="M462.946 165.019C459.37 184.75 451.741 206.429 469.408 194.006C517.15 160.433 472.896 102.48 466.435 125.1C464.354 132.387 471.844 144.598 462.946 165.019Z"
        fill="#D0E9F6" />
    <path opacity="0.28"
        d="M445.767 104.165C447.158 105.055 448.885 105.239 450.374 105.957C452.09 106.784 453.387 108.265 454.912 109.407C456.436 110.55 458.48 111.368 460.227 110.606C462.708 109.523 462.995 106.178 462.904 103.471C462.68 96.8346 453.805 87.285 446.525 88.239C437.406 89.4342 439.858 100.38 445.767 104.165Z"
        fill="#D0E9F6" />
    <path
        d="M241.147 408.15C241.135 407.361 205.448 370.342 168.642 354.616C131.835 338.888 104.999 319.245 103.858 290.162C102.766 262.352 107.563 246.29 125.35 221.832C139.716 202.077 147.906 194.223 151.665 190.239C152.237 189.632 153.243 190.123 153.115 190.947C151.128 203.744 143.741 246.085 169.362 272.61C193.832 297.945 219.178 303.621 239.015 342.057C258.852 380.493 241.147 408.15 241.147 408.15Z"
        fill="#B1D9B0" />
    <path
        d="M151.664 190.238C145.261 200.167 139.984 210.833 136.394 222.045C134.617 227.648 133.193 233.37 132.431 239.184C131.667 244.993 131.489 250.876 132.065 256.683C132.67 262.484 134.071 268.186 136.216 273.585C138.376 278.985 141.316 284.069 144.684 288.843C151.458 298.397 159.832 306.755 168.56 314.635C177.274 322.56 186.447 330.002 195.548 337.558C200.098 341.338 204.631 345.151 209.053 349.105C213.48 353.051 217.774 357.176 221.72 361.647C225.641 366.109 229.335 370.933 231.836 376.392C234.476 381.734 236.538 387.346 238.103 393.077C239.652 398.814 240.728 404.666 241.362 410.558C241.996 416.447 240.391 404.648 237.021 393.387C235.355 387.751 233.233 382.246 230.537 377.038C228.008 371.765 224.346 367.157 220.406 362.828C212.424 354.231 203.326 346.671 194.217 339.169C185.087 331.676 175.84 324.276 167.021 316.335C158.273 308.341 149.841 299.84 142.977 290.04C139.564 285.143 136.573 279.908 134.374 274.316C132.163 268.73 130.818 262.813 130.314 256.847C129.828 250.876 130.12 244.873 131.002 238.98C131.888 233.084 133.417 227.31 135.334 221.69C139.316 210.5 144.827 199.886 151.664 190.238Z"
        fill="white" />
    <path
        d="M189.119 313.737C188.584 315.538 188.271 317.366 188.081 319.187C187.916 321.012 187.93 322.842 188.18 324.637C188.395 326.436 188.859 328.204 189.563 329.884C190.21 331.599 191.182 333.165 192.178 334.767C190.844 333.458 189.57 331.994 188.749 330.258C188.256 329.428 187.987 328.502 187.639 327.604C187.407 326.674 187.14 325.742 187.044 324.785C186.547 320.977 187.25 317.013 189.119 313.737Z"
        fill="white" />
    <path
        d="M129.711 301.44C132.622 300.752 135.653 300.623 138.649 300.788C141.65 300.942 144.639 301.471 147.524 302.343C150.397 303.232 153.219 304.36 155.788 305.929C157.11 306.648 158.318 307.546 159.544 308.407C160.163 308.827 160.705 309.352 161.274 309.836C161.841 310.323 162.397 310.821 162.945 311.324C160.48 309.639 158.046 307.952 155.387 306.665C152.777 305.299 150.024 304.23 147.213 303.386C144.407 302.507 141.505 301.965 138.579 301.618C135.65 301.286 132.682 301.198 129.711 301.44Z"
        fill="white" />
    <path
        d="M141.324 248.369C140.107 248.432 138.936 248.618 137.837 248.944C136.743 249.285 135.726 249.796 134.921 250.544C134.695 250.705 134.52 250.918 134.342 251.129C134.159 251.337 133.97 251.539 133.839 251.787C133.692 252.024 133.53 252.252 133.39 252.496C133.283 252.758 133.164 253.016 133.041 253.275C132.783 253.788 132.683 254.37 132.474 254.925C132.337 255.499 132.235 256.087 132.065 256.683C131.993 256.081 131.951 255.466 131.945 254.846C132.035 254.24 132.026 253.598 132.237 253C132.514 251.761 133.25 250.621 134.195 249.732C135.169 248.859 136.4 248.314 137.645 248.119C138.888 247.922 140.159 247.983 141.324 248.369Z"
        fill="white" />
    <path
        d="M189.277 166.173L193.907 156.403C193.907 156.403 170.088 133.695 163.065 132.423C155.369 131.031 131.415 176.131 154.68 229.734C161.989 246.572 171.198 262.063 179.654 274.63L187.178 271.446L182.527 278.832C194.134 295.546 203.643 306.111 203.643 306.111C220.546 250.291 217.186 213.361 217.186 213.361L204.942 211.334L214.088 204.625C214.088 204.625 206.387 170.982 201.193 166.546C195.998 162.111 189.277 166.173 189.277 166.173Z"
        fill="#A0C49E" />
    <path
        d="M160.685 133.104C163.053 141.808 165.288 150.544 167.6 159.263L174.313 185.47L187.484 237.944C187.484 237.944 208.089 325.742 205.644 317.06L198.629 290.926C194.033 273.483 189.677 255.98 185.258 238.494C181.022 220.962 176.703 203.452 172.605 185.887L166.511 159.527C164.568 150.719 162.55 141.93 160.685 133.104Z"
        fill="white" />
    <path
        d="M160.7 185.617C162.598 185.206 164.626 185.37 166.51 185.964C168.41 186.542 170.156 187.585 171.661 188.88C173.135 190.22 174.341 191.814 175.283 193.533C175.763 194.387 176.102 195.311 176.496 196.196C176.77 197.133 177.065 198.056 177.296 198.991C176.821 198.141 176.425 197.27 175.984 196.427C175.476 195.618 175.042 194.775 174.515 193.995C173.948 193.242 173.477 192.425 172.826 191.752C172.255 191.009 171.573 190.379 170.901 189.74C169.51 188.517 167.934 187.516 166.213 186.806C164.489 186.111 162.632 185.651 160.7 185.617Z"
        fill="white" />
    <path
        d="M197.765 227.972C195.916 229.072 194.458 230.639 193.253 232.324C192.065 234.032 191.199 235.942 190.592 237.928L190.158 239.429L189.859 240.969C189.605 241.988 189.6 243.049 189.425 244.091L189.254 247.264C189.248 248.328 189.28 249.393 189.241 250.474C189.022 249.423 188.877 248.357 188.691 247.289C188.617 246.215 188.541 245.132 188.53 244.048C188.61 241.883 188.808 239.686 189.496 237.59C190.157 235.502 191.132 233.481 192.542 231.784C193.936 230.093 195.717 228.67 197.765 227.972Z"
        fill="white" />
    <path d="M351.757 119.774L288.548 118.733L287.672 127.079L350.623 130.584L351.757 119.774Z"
        fill="#D4761D" />
    <path d="M287.672 127.079L282.897 172.59L345.526 179.162L350.623 130.584L287.672 127.079Z"
        fill="#DB9023" />
    <path
        d="M334.469 111.055C334.273 111.32 334.067 111.577 333.876 111.846C332.847 113.28 331.899 114.772 331.013 116.31C330.128 117.848 329.312 119.435 328.686 121.156C330.108 120.002 331.341 118.712 332.505 117.374C333.668 116.034 334.769 114.65 335.789 113.209C336.014 112.893 336.223 112.564 336.442 112.242L334.469 111.055Z"
        fill="#487FE0" />
    <path
        d="M337.392 106.826C332.905 103.851 328.745 103.782 330.757 108.046C332.77 112.31 338.239 115.962 341.664 113.547C345.091 111.133 337.392 106.826 337.392 106.826Z"
        fill="#27376A" />
    <path
        d="M334.952 108.012C334.952 108.012 337.383 97.9534 340.012 97.631C342.641 97.3098 348.255 101.385 348.168 104.432C348.081 107.478 339.38 110.974 339.38 110.974L334.952 108.012Z"
        fill="#487FE0" />
    <path opacity="0.28"
        d="M339.741 139.675C335.248 139.478 330.726 139.405 326.24 139.077C325.382 139.014 315.924 137.752 316.197 138.734C315.883 137.604 314.47 136.653 313.413 137.651C312.358 139.12 310.859 139.401 308.916 138.494C308.298 137.511 306.807 137.776 306.189 138.554C305.077 139.957 300.541 137.382 298.573 137.839C296.289 138.37 294.779 140.351 293.486 142.142C292.188 143.941 294.96 145.988 296.259 144.186C299.449 139.762 303.706 144.14 307.383 142.006C309.399 143.729 311.991 143.032 314.189 141.467C315.516 142.339 317.438 141.827 319.537 141.798C325.985 141.71 332.822 142.812 339.33 143.097C341.537 143.193 341.957 139.772 339.741 139.675Z"
        fill="white" />
    <path opacity="0.28"
        d="M339.199 152.305C332.663 150.228 325.759 150.314 318.966 149.95C311.414 149.544 304.02 149.357 296.65 151.281C294.507 151.84 295.416 155.164 297.566 154.603C304.626 152.76 311.747 153.005 318.966 153.394C325.436 153.743 332.06 153.65 338.283 155.627C340.401 156.299 341.307 152.975 339.199 152.305Z"
        fill="white" />
    <path opacity="0.28"
        d="M336.692 163.437C335.203 164.078 330.603 162.22 328.77 162.035C325.364 161.69 321.888 161.717 318.468 161.588C310.947 161.306 303.425 161.024 295.904 160.742C293.687 160.66 293.69 164.103 295.904 164.187C304.553 164.51 313.204 164.834 321.853 165.159C325.871 165.309 329.547 165.598 333.467 166.472C335.52 166.93 336.467 167.257 338.431 166.41C340.461 165.536 338.708 162.568 336.692 163.437Z"
        fill="white" />
    <g opacity="0.4">
        <path d="M353.782 417.4C354.413 417.827 355.049 418.25 355.694 418.67" stroke="#487FE0"
            stroke-width="0.9616" stroke-miterlimit="10" />
        <path
            d="M359.585 421.102C429.96 463.377 573.266 460.344 563.217 355.375C552.884 247.43 440.55 332.034 499.01 342.397C536.981 349.129 554.606 256.992 538.532 211.33C522.459 165.667 418.109 94.0036 276.994 99.5366C155.707 104.292 123.49 133.137 123.49 133.137C123.49 133.137 52.3021 173.753 53.4495 244.937C54.5277 311.8 85.1048 338.744 109.213 341.249"
            stroke="#487FE0" stroke-width="0.9616" stroke-miterlimit="10"
            stroke-dasharray="3.84 3.84" />
        <path d="M111.504 341.414C112.277 341.445 113.041 341.451 113.797 341.431" stroke="#487FE0"
            stroke-width="0.9616" stroke-miterlimit="10" />
    </g>
    <path
        d="M123.69 131.767C117.751 134.3 80.9138 171.563 80.9138 171.563L104.334 180.215C106.234 180.917 108.334 179.892 108.95 177.962L123.69 131.767Z"
        fill="#487FE0" />
    <path
        d="M123.69 131.767L50.4919 158.994C48.0693 159.896 48.0728 163.324 50.4979 164.219L60.5692 167.94L123.69 131.767Z"
        fill="#487FE0" />
    <path d="M60.5693 167.94L70.5942 189.717L80.9139 171.562L123.69 131.767L60.5693 167.94Z"
        fill="#9CC1F8" />
    <path d="M70.594 189.717L88.2521 174.274L80.9137 171.562L70.594 189.717Z" fill="#27376A" />
    <path
        d="M354.544 379.118C362.353 393.589 472.781 346.587 445.514 331.036C425.734 319.757 428.365 317.159 451.143 291.306C473.921 265.454 514.55 196.107 489.337 178.694C436.546 142.234 413.849 306.5 401.469 302.173C389.09 297.847 392.818 279.968 378.991 283.813C365.165 287.657 350.736 372.062 354.544 379.118Z"
        fill="#B1D9B0" />
    <path
        d="M484.075 175.674C474.818 197.035 464.486 217.921 453.623 238.518C442.735 259.106 431.073 279.289 418.713 299.041C412.498 308.896 405.981 318.562 399.302 328.11L394.238 335.235L389.043 342.265C387.334 344.624 385.517 346.906 383.741 349.215C381.951 351.515 380.161 353.814 378.293 356.053C370.978 365.129 363.257 373.884 355.098 382.21C346.881 390.469 346.37 389.926 354.286 381.429C362.25 372.978 369.791 364.128 376.911 354.952C391.247 336.676 404.423 317.5 416.774 297.817C422.994 288.002 429.054 278.084 434.916 268.046C440.787 258.013 446.435 247.853 452.076 237.685C457.689 227.502 463.141 217.229 468.456 206.884C473.832 196.568 479.024 186.158 484.075 175.674Z"
        fill="white" />
    <path
        d="M462.829 201.669C463.846 203.052 464.277 204.806 464.459 206.502C464.644 208.217 464.558 209.951 464.295 211.64C464.184 212.491 463.968 213.319 463.791 214.153C463.563 214.975 463.328 215.794 463.055 216.599C462.756 217.395 462.452 218.188 462.114 218.965C461.728 219.725 461.379 220.495 460.964 221.234C461.138 220.398 461.379 219.594 461.584 218.779L462.195 216.346C462.554 214.718 462.938 213.104 463.161 211.468C463.438 209.84 463.566 208.195 463.568 206.554C463.536 204.919 463.441 203.247 462.829 201.669Z"
        fill="white" />
    <path
        d="M455.175 264.344C453.917 263.917 452.617 263.678 451.315 263.607C450.665 263.565 450.017 263.535 449.368 263.587C448.718 263.585 448.08 263.707 447.441 263.799C444.894 264.229 442.477 265.227 440.293 266.594C438.045 267.888 436.174 269.732 434.282 271.532C433.417 272.515 432.532 273.489 431.686 274.499C430.872 275.536 430.087 276.6 429.236 277.629C429.866 276.461 430.565 275.327 431.232 274.166C431.998 273.075 432.82 272.018 433.625 270.941C435.412 268.947 437.34 267.007 439.692 265.617C442 264.204 444.605 263.166 447.329 262.926C448.009 262.882 448.684 262.81 449.364 262.865C450.044 262.867 450.716 262.943 451.383 263.051C452.703 263.315 454.016 263.677 455.175 264.344Z"
        fill="white" />
    <path
        d="M380.756 314.912C382.665 317.144 384.203 319.684 385.481 322.345C386.76 325.01 387.676 327.863 388.167 330.806C388.603 333.749 388.593 336.812 387.8 339.705C387.434 341.154 386.848 342.539 386.16 343.849C385.451 345.154 384.55 346.338 383.576 347.429C385.181 344.98 386.402 342.319 386.94 339.504C387.497 336.7 387.473 333.809 387.033 330.983C386.589 328.152 385.736 325.386 384.675 322.698C384.142 321.352 383.537 320.033 382.87 318.741C382.235 317.431 381.518 316.163 380.756 314.912Z"
        fill="white" />
    <path
        d="M195.055 201.153C169.113 202.575 169.419 228.2 169.898 260.299C170.063 271.332 169.14 289.183 170.036 304.518C174.257 376.768 169.894 371.755 301.693 376.426C355.365 378.328 403.119 380.566 414.616 368.417C426.923 355.413 424.443 327.891 427.465 280.386C428.862 255.826 435.109 206.579 416.375 204.662C378.633 200.801 346.028 200.286 303.989 199.35C263.763 198.455 218.294 199.879 195.055 201.153Z"
        fill="#263D74" />
    <path
        d="M201.619 210.392C177.557 211.887 178.556 234.74 178.998 264.331C179.15 274.502 178.299 290.957 179.126 305.094C183.023 371.697 180.653 365.737 302.339 370.042C351.892 371.796 395.99 374.449 404.939 364C412.223 355.497 408.239 326.739 411.029 282.946C410.054 251.136 417.422 214.575 403.479 213.997C350.263 211.791 245.485 207.668 201.619 210.392Z"
        fill="#EFF6FF" />
    <path
        d="M276.625 372.17C276.625 372.17 282.18 398.937 274.061 398.612C265.941 398.287 243.205 396.551 243.206 409.006C243.207 425.748 347.671 426.221 347.671 409.437C347.671 399.911 328.82 398.483 319.893 398.341C313.965 398.247 315.992 392.671 318.462 372.007L276.625 372.17Z"
        fill="#263D74" />
    <path
        d="M215.696 470.884C227.723 455.903 234.551 453.08 245.102 453.355C281.42 454.301 354.325 454.95 357.587 457.827C361.824 461.565 345.331 498.419 338.912 503.449C331.05 509.61 206.389 510.494 205.329 493.03C204.883 485.685 211.099 476.609 215.696 470.884Z"
        fill="#DEE7F7" />
    <path
        d="M223.775 466.753C229.594 459.469 236.743 455.669 246.419 455.922C279.721 456.793 349.607 459.325 353.442 460.484C357.607 461.742 343.23 494.156 337.349 498.595C330.146 504.033 204.715 501.21 209.527 488.446C211.835 482.325 219.673 471.887 223.775 466.753Z"
        fill="white" />
    <path
        d="M238.823 460.89C238.823 460.89 233.076 465.447 233.777 466.097C234.478 466.747 242.844 466.356 242.844 466.356L247.813 461.147C247.813 461.147 239.975 459.946 238.823 460.89Z"
        fill="#DEE7F7" />
    <path
        d="M251.447 461.566L247.654 466.774C247.654 466.774 255.798 466.944 257.127 467.045C257.807 467.096 260.811 461.833 260.811 461.833L251.447 461.566Z"
        fill="#DEE7F7" />
    <path
        d="M266.269 461.99C265.747 463.391 262.078 468.08 262.078 468.08L270.416 468.319L274.459 462.224L266.269 461.99Z"
        fill="#DEE7F7" />
    <path
        d="M227.802 471.101C227.802 471.101 222.055 475.659 222.756 476.308C223.457 476.958 231.824 476.567 231.824 476.567L236.793 471.358C236.793 471.358 228.954 470.157 227.802 471.101Z"
        fill="#DEE7F7" />
    <path
        d="M241.596 471.81L236.632 476.985C236.632 476.985 244.69 478.331 245.498 477.467C246.73 476.15 249.788 472.044 249.788 472.044L241.596 471.81Z"
        fill="#DEE7F7" />
    <path
        d="M256.764 472.284C255.196 474.481 251.674 478.29 251.674 478.29L261.307 478.566L265.321 473.088L256.764 472.284Z"
        fill="#DEE7F7" />
    <path
        d="M219.882 481.848L216.089 487.056C216.089 487.056 224.151 489.052 224.969 487.761C225.865 486.345 229.246 482.117 229.246 482.117L219.882 481.848Z"
        fill="#DEE7F7" />
    <path
        d="M235.386 482.291C234.337 483.882 230.342 488.358 230.342 488.358L237.965 488.575L242.721 482.501L235.386 482.291Z"
        fill="#DEE7F7" />
    <path
        d="M279.124 462.151C279.124 462.151 275.55 466.478 274.997 467.635L283.796 468.142L288.116 462.408L279.124 462.151Z"
        fill="#DEE7F7" />
    <path
        d="M292.141 462.729L288.347 467.937C288.347 467.937 298.067 469.173 298.808 468.355C299.795 467.267 301.505 462.996 301.505 462.996L292.141 462.729Z"
        fill="#DEE7F7" />
    <path
        d="M306.762 462.776C306.241 464.178 303.035 468.835 303.035 468.835L313.784 469.142L316.53 463.009L306.762 462.776Z"
        fill="#DEE7F7" />
    <path
        d="M271.35 473.409L266.483 478.621C267.184 479.27 275.55 478.88 275.55 478.88L280.52 473.671C280.52 473.671 273.259 473.064 271.35 473.409Z"
        fill="#DEE7F7" />
    <path
        d="M286.308 473.088L281.928 479.102L292.315 479.212C293.271 476.73 295.673 473.355 295.673 473.355L286.308 473.088Z"
        fill="#DEE7F7" />
    <path
        d="M300.83 473.534C300.308 474.936 297.737 479.625 297.737 479.625L308.198 479.924L311.353 473.534H300.83Z"
        fill="#DEE7F7" />
    <path d="M296.016 484.064L294.222 490.143L303.752 490.415L306.023 484.351L296.016 484.064Z"
        fill="#DEE7F7" />
    <path
        d="M322.163 463.81C322.79 463.65 347.021 466.145 347.021 466.145C347.021 466.145 339.644 483.332 338.304 483.384C336.965 483.435 332.339 482.642 332.339 482.642L334.673 476.739L317.864 475.345L322.163 463.81Z"
        fill="#DEE7F7" />
    <path d="M328.282 487.538L326.258 491.601L332.8 492.137L334.919 488.092L328.282 487.538Z"
        fill="#DEE7F7" />
    <path d="M322.646 486.759L319.209 491.869H323.831L326.702 487.24L322.646 486.759Z"
        fill="#DEE7F7" />
    <path d="M319.209 486.853L316.769 491.869L309.673 491.667L312.226 486.654L319.209 486.853Z"
        fill="#DEE7F7" />
    <path d="M323.831 479.193L321.391 484.208L314.297 484.005L316.848 478.993L323.831 479.193Z"
        fill="#DEE7F7" />
    <path d="M291.092 484.446L288.406 489.454L246.099 488.246L248.674 483.233L291.092 484.446Z"
        fill="#DEE7F7" />
    <path
        d="M353.782 376.707C353.275 386.757 352.433 407.411 354.075 407.713C356.247 408.113 382.306 407.713 382.306 407.713L389.182 403.314V376.707H353.782Z"
        fill="#E8A33C" />
    <path
        d="M353.782 376.707C353.275 385.804 352.433 404.497 354.075 404.771C356.247 405.133 382.306 404.771 382.306 404.771L389.182 400.789V376.707H353.782Z"
        fill="#D4761D" />
    <path
        d="M389.183 371.835H354.075C354.075 371.835 353.946 373.777 353.782 376.708H389.183V371.835Z"
        fill="#DB9023" />
    <path d="M389.183 400.79L381.425 398.271L382.307 404.772L389.183 400.79Z" fill="#DB9023" />
    <path
        d="M152.531 465.201L154.575 467.992C154.856 468.376 155.452 468.274 155.594 467.82C156.017 466.465 156.587 464.302 155.921 464.255C154.949 464.185 152.531 465.201 152.531 465.201Z"
        fill="#263D74" />
    <path
        d="M150.873 401.96C149.152 394.461 147.717 389.145 147.301 388.339C145.617 385.07 132.546 396.68 132.546 396.68C132.546 396.68 132.855 399.46 133.466 403.898C137.962 404.899 144.192 405.134 150.873 401.96Z"
        fill="#DB9023" />
    <path
        d="M133.467 403.898C135.519 418.811 140.982 452.495 149.606 462.739C151.905 462.391 154.949 461.902 158.08 461.32C160.679 450.054 154.969 419.815 150.874 401.96C144.192 405.134 137.962 404.899 133.467 403.898Z"
        fill="#263D74" />
    <path
        d="M149.606 462.739C150.883 464.257 152.197 465.8 153.644 465.621C156.412 465.277 157.343 464.514 158.08 461.32C154.949 461.902 151.905 462.391 149.606 462.739Z"
        fill="#D4761D" />
    <path
        d="M116.59 341.297C116.59 341.297 130.961 397.951 133.889 399.086C136.817 400.223 148.071 398.438 149.16 396.314C150.249 394.19 146.015 327.217 131.347 326.24C123.429 325.714 114.106 331.684 116.59 341.297Z"
        fill="#D4761D" />
    <path
        d="M150.758 372.12C150.062 372.329 149.344 372.167 148.703 371.649C146.264 369.682 145.13 362.686 148.089 351.493C151.835 337.334 131.856 328.302 131.653 328.213C131.376 328.09 131.249 327.764 131.372 327.486C131.495 327.209 131.821 327.081 132.098 327.205C132.31 327.298 153.14 336.707 149.154 351.775C145.909 364.043 147.892 369.579 149.396 370.792C149.818 371.133 150.229 371.198 150.653 370.978C151.207 370.696 151.513 370.332 151.589 369.867C151.791 368.62 150.389 366.877 149.831 366.308C149.619 366.092 149.621 365.743 149.839 365.53C150.057 365.314 150.405 365.319 150.618 365.537C150.863 365.787 153.004 368.031 152.677 370.043C152.543 370.868 152.031 371.513 151.153 371.96C151.022 372.028 150.891 372.08 150.758 372.12Z"
        fill="#D4761D" />
    <path
        d="M158.241 463.432C158.241 463.432 156.499 470.603 150.317 470.227C144.136 469.85 141.949 465.647 142.968 461.153C143.988 456.658 158.241 463.432 158.241 463.432Z"
        fill="#263D74" />
    <path d="M142.968 461.153L158.241 463.432L159.94 455.796L144.815 453.01L142.968 461.153Z"
        fill="#DB9023" />
    <path d="M167.512 352.995L144.815 453.01L159.94 455.796L182.022 356.58L167.512 352.995Z"
        fill="#DB7929" />
    <path
        d="M157.207 452.165C157.904 448.24 158.692 444.333 159.434 440.415L161.807 428.699C163.405 420.891 165.129 413.111 166.783 405.315C168.551 397.545 170.26 389.761 172.085 382.004L174.852 370.373C175.826 366.508 176.751 362.631 177.767 358.775C177.071 362.703 176.283 366.608 175.543 370.526L173.169 382.242C171.568 390.05 169.849 397.831 168.192 405.626C166.42 413.395 164.717 421.18 162.887 428.937L160.12 440.568C159.147 444.433 158.223 448.309 157.207 452.165Z"
        fill="white" />
    <path
        d="M151.818 450.281C152.517 446.355 153.305 442.449 154.045 438.532L156.419 426.816C158.016 419.008 159.741 411.228 161.394 403.432C163.163 395.662 164.871 387.878 166.697 380.121L169.463 368.49C170.438 364.625 171.363 360.748 172.379 356.893C171.682 360.82 170.894 364.725 170.155 368.643L167.781 380.359C166.18 388.167 164.46 395.948 162.803 403.743C161.031 411.512 159.327 419.297 157.498 427.054L154.732 438.685C153.759 442.549 152.833 446.425 151.818 450.281Z"
        fill="white" />
    <path
        d="M179.057 343.334L177.84 337.9L174.655 342.555C176.416 343.242 177.864 343.419 179.057 343.334Z"
        fill="#A0C49E" />
    <path
        d="M182.022 356.58L179.057 343.334C177.864 343.419 176.416 343.242 174.656 342.555L167.512 352.995L182.022 356.58Z"
        fill="#DB9023" />
    <path
        d="M187.887 389.185C188.281 386.278 188.575 384.31 188.575 383.604C188.575 374.684 117.519 372.392 116.631 375.581C116.631 375.581 116.594 379.908 116.908 383.604C124.804 381.915 144.254 380.59 187.887 389.185Z"
        fill="#263D74" />
    <path
        d="M185.439 385.927C182.492 408.563 173.407 471.759 171.438 472.522C169.118 473.421 137.459 472.886 131.99 472.522C127.467 472.221 121.532 403.664 119.613 379.928C118.483 380.08 117.488 380.25 116.631 380.43C118.482 401.875 125.147 474.829 130.188 475.139C136.098 475.503 170.305 476.038 172.812 475.139C175.008 474.351 185.404 406.984 188.231 386.458C187.284 386.275 186.363 386.101 185.439 385.927Z"
        fill="#263D74" />
    <mask id="mask0_27_833" style="mask-type:luminance" maskUnits="userSpaceOnUse" x="116" y="374"
        width="73" height="102">
        <path
            d="M188.231 383.576C188.607 378.519 116.631 370.27 116.631 377.263C116.631 377.263 116.718 378.376 116.877 380.355C116.79 380.369 116.718 380.383 116.631 380.398C118.495 401.851 125.155 474.794 130.197 475.112C136.106 475.472 170.317 476.007 172.816 475.112C175.012 474.318 185.414 406.951 188.231 386.421C188.129 386.407 188.013 386.378 187.913 386.364C188.1 384.978 188.201 384.024 188.231 383.576Z"
            fill="white" />
    </mask>
    <g mask="url(#mask0_27_833)">
        <path d="M163.989 329.009L91.4114 450.805" stroke="#263D74" stroke-width="1.21"
            stroke-miterlimit="10" />
    </g>
    <mask id="mask1_27_833" style="mask-type:luminance" maskUnits="userSpaceOnUse" x="116" y="374"
        width="73" height="102">
        <path
            d="M188.231 383.576C188.607 378.519 116.631 370.27 116.631 377.263C116.631 377.263 116.718 378.376 116.877 380.355C116.79 380.369 116.718 380.383 116.631 380.398C118.495 401.851 125.155 474.794 130.197 475.112C136.106 475.472 170.317 476.007 172.816 475.112C175.012 474.318 185.414 406.951 188.231 386.421C188.129 386.407 188.013 386.378 187.913 386.364C188.1 384.978 188.201 384.024 188.231 383.576Z"
            fill="white" />
    </mask>
    <g mask="url(#mask1_27_833)">
        <path d="M171.501 336.522L98.9253 458.318" stroke="#263D74" stroke-width="1.21"
            stroke-miterlimit="10" />
    </g>
    <mask id="mask2_27_833" style="mask-type:luminance" maskUnits="userSpaceOnUse" x="116" y="374"
        width="73" height="102">
        <path
            d="M188.231 383.576C188.607 378.519 116.631 370.27 116.631 377.263C116.631 377.263 116.718 378.376 116.877 380.355C116.79 380.369 116.718 380.383 116.631 380.398C118.495 401.851 125.155 474.794 130.197 475.112C136.106 475.472 170.317 476.007 172.816 475.112C175.012 474.318 185.414 406.951 188.231 386.421C188.129 386.407 188.013 386.378 187.913 386.364C188.1 384.978 188.201 384.024 188.231 383.576Z"
            fill="white" />
    </mask>
    <g mask="url(#mask2_27_833)">
        <path d="M179.015 344.036L106.438 465.831" stroke="#263D74" stroke-width="1.21"
            stroke-miterlimit="10" />
    </g>
    <mask id="mask3_27_833" style="mask-type:luminance" maskUnits="userSpaceOnUse" x="116" y="374"
        width="73" height="102">
        <path
            d="M188.231 383.576C188.607 378.519 116.631 370.27 116.631 377.263C116.631 377.263 116.718 378.376 116.877 380.355C116.79 380.369 116.718 380.383 116.631 380.398C118.495 401.851 125.155 474.794 130.197 475.112C136.106 475.472 170.317 476.007 172.816 475.112C175.012 474.318 185.414 406.951 188.231 386.421C188.129 386.407 188.013 386.378 187.913 386.364C188.1 384.978 188.201 384.024 188.231 383.576Z"
            fill="white" />
    </mask>
    <g mask="url(#mask3_27_833)">
        <path d="M186.528 351.548L113.951 473.343" stroke="#263D74" stroke-width="1.21"
            stroke-miterlimit="10" />
    </g>
    <mask id="mask4_27_833" style="mask-type:luminance" maskUnits="userSpaceOnUse" x="116" y="374"
        width="73" height="102">
        <path
            d="M188.231 383.576C188.607 378.519 116.631 370.27 116.631 377.263C116.631 377.263 116.718 378.376 116.877 380.355C116.79 380.369 116.718 380.383 116.631 380.398C118.495 401.851 125.155 474.794 130.197 475.112C136.106 475.472 170.317 476.007 172.816 475.112C175.012 474.318 185.414 406.951 188.231 386.421C188.129 386.407 188.013 386.378 187.913 386.364C188.1 384.978 188.201 384.024 188.231 383.576Z"
            fill="white" />
    </mask>
    <g mask="url(#mask4_27_833)">
        <path d="M194.04 359.061L121.463 480.856" stroke="#263D74" stroke-width="1.21"
            stroke-miterlimit="10" />
    </g>
    <mask id="mask5_27_833" style="mask-type:luminance" maskUnits="userSpaceOnUse" x="116" y="374"
        width="73" height="102">
        <path
            d="M188.231 383.576C188.607 378.519 116.631 370.27 116.631 377.263C116.631 377.263 116.718 378.376 116.877 380.355C116.79 380.369 116.718 380.383 116.631 380.398C118.495 401.851 125.155 474.794 130.197 475.112C136.106 475.472 170.317 476.007 172.816 475.112C175.012 474.318 185.414 406.951 188.231 386.421C188.129 386.407 188.013 386.378 187.913 386.364C188.1 384.978 188.201 384.024 188.231 383.576Z"
            fill="white" />
    </mask>
    <g mask="url(#mask5_27_833)">
        <path d="M201.553 366.574L128.976 488.37" stroke="#263D74" stroke-width="1.21"
            stroke-miterlimit="10" />
    </g>
    <mask id="mask6_27_833" style="mask-type:luminance" maskUnits="userSpaceOnUse" x="116" y="374"
        width="73" height="102">
        <path
            d="M188.231 383.576C188.607 378.519 116.631 370.27 116.631 377.263C116.631 377.263 116.718 378.376 116.877 380.355C116.79 380.369 116.718 380.383 116.631 380.398C118.495 401.851 125.155 474.794 130.197 475.112C136.106 475.472 170.317 476.007 172.816 475.112C175.012 474.318 185.414 406.951 188.231 386.421C188.129 386.407 188.013 386.378 187.913 386.364C188.1 384.978 188.201 384.024 188.231 383.576Z"
            fill="white" />
    </mask>
    <g mask="url(#mask6_27_833)">
        <path d="M209.066 374.086L136.489 495.883" stroke="#263D74" stroke-width="1.21"
            stroke-miterlimit="10" />
    </g>
    <mask id="mask7_27_833" style="mask-type:luminance" maskUnits="userSpaceOnUse" x="116" y="374"
        width="73" height="102">
        <path
            d="M188.231 383.576C188.607 378.519 116.631 370.27 116.631 377.263C116.631 377.263 116.718 378.376 116.877 380.355C116.79 380.369 116.718 380.383 116.631 380.398C118.495 401.851 125.155 474.794 130.197 475.112C136.106 475.472 170.317 476.007 172.816 475.112C175.012 474.318 185.414 406.951 188.231 386.421C188.129 386.407 188.013 386.378 187.913 386.364C188.1 384.978 188.201 384.024 188.231 383.576Z"
            fill="white" />
    </mask>
    <g mask="url(#mask7_27_833)">
        <path d="M216.579 381.599L144.001 503.395" stroke="#263D74" stroke-width="1.21"
            stroke-miterlimit="10" />
    </g>
    <mask id="mask8_27_833" style="mask-type:luminance" maskUnits="userSpaceOnUse" x="116" y="374"
        width="73" height="102">
        <path
            d="M188.231 383.576C188.607 378.519 116.631 370.27 116.631 377.263C116.631 377.263 116.718 378.376 116.877 380.355C116.79 380.369 116.718 380.383 116.631 380.398C118.495 401.851 125.155 474.794 130.197 475.112C136.106 475.472 170.317 476.007 172.816 475.112C175.012 474.318 185.414 406.951 188.231 386.421C188.129 386.407 188.013 386.378 187.913 386.364C188.1 384.978 188.201 384.024 188.231 383.576Z"
            fill="white" />
    </mask>
    <g mask="url(#mask8_27_833)">
        <path d="M202.316 488.23L167.513 350.788" stroke="#263D74" stroke-width="1.21"
            stroke-miterlimit="10" />
    </g>
    <mask id="mask9_27_833" style="mask-type:luminance" maskUnits="userSpaceOnUse" x="116" y="374"
        width="73" height="102">
        <path
            d="M188.231 383.576C188.607 378.519 116.631 370.27 116.631 377.263C116.631 377.263 116.718 378.376 116.877 380.355C116.79 380.369 116.718 380.383 116.631 380.398C118.495 401.851 125.155 474.794 130.197 475.112C136.106 475.472 170.317 476.007 172.816 475.112C175.012 474.318 185.414 406.951 188.231 386.421C188.129 386.407 188.013 386.378 187.913 386.364C188.1 384.978 188.201 384.024 188.231 383.576Z"
            fill="white" />
    </mask>
    <g mask="url(#mask9_27_833)">
        <path d="M194.88 492.997L160.077 355.554" stroke="#263D74" stroke-width="1.21"
            stroke-miterlimit="10" />
    </g>
    <mask id="mask10_27_833" style="mask-type:luminance" maskUnits="userSpaceOnUse" x="116" y="374"
        width="73" height="102">
        <path
            d="M188.231 383.576C188.607 378.519 116.631 370.27 116.631 377.263C116.631 377.263 116.718 378.376 116.877 380.355C116.79 380.369 116.718 380.383 116.631 380.398C118.495 401.851 125.155 474.794 130.197 475.112C136.106 475.472 170.317 476.007 172.816 475.112C175.012 474.318 185.414 406.951 188.231 386.421C188.129 386.407 188.013 386.378 187.913 386.364C188.1 384.978 188.201 384.024 188.231 383.576Z"
            fill="white" />
    </mask>
    <g mask="url(#mask10_27_833)">
        <path d="M184.256 492.997L149.452 355.554" stroke="#263D74" stroke-width="1.21"
            stroke-miterlimit="10" />
    </g>
    <mask id="mask11_27_833" style="mask-type:luminance" maskUnits="userSpaceOnUse" x="116" y="374"
        width="73" height="102">
        <path
            d="M188.231 383.576C188.607 378.519 116.631 370.27 116.631 377.263C116.631 377.263 116.718 378.376 116.877 380.355C116.79 380.369 116.718 380.383 116.631 380.398C118.495 401.851 125.155 474.794 130.197 475.112C136.106 475.472 170.317 476.007 172.816 475.112C175.012 474.318 185.414 406.951 188.231 386.421C188.129 386.407 188.013 386.378 187.913 386.364C188.1 384.978 188.201 384.024 188.231 383.576Z"
            fill="white" />
    </mask>
    <g mask="url(#mask11_27_833)">
        <path d="M173.63 492.997L138.828 355.554" stroke="#263D74" stroke-width="1.21"
            stroke-miterlimit="10" />
    </g>
    <mask id="mask12_27_833" style="mask-type:luminance" maskUnits="userSpaceOnUse" x="116" y="374"
        width="73" height="102">
        <path
            d="M188.231 383.576C188.607 378.519 116.631 370.27 116.631 377.263C116.631 377.263 116.718 378.376 116.877 380.355C116.79 380.369 116.718 380.383 116.631 380.398C118.495 401.851 125.155 474.794 130.197 475.112C136.106 475.472 170.317 476.007 172.816 475.112C175.012 474.318 185.414 406.951 188.231 386.421C188.129 386.407 188.013 386.378 187.913 386.364C188.1 384.978 188.201 384.024 188.231 383.576Z"
            fill="white" />
    </mask>
    <g mask="url(#mask12_27_833)">
        <path d="M163.006 492.997L128.203 355.554" stroke="#263D74" stroke-width="1.21"
            stroke-miterlimit="10" />
    </g>
    <mask id="mask13_27_833" style="mask-type:luminance" maskUnits="userSpaceOnUse" x="116" y="374"
        width="73" height="102">
        <path
            d="M188.231 383.576C188.607 378.519 116.631 370.27 116.631 377.263C116.631 377.263 116.718 378.376 116.877 380.355C116.79 380.369 116.718 380.383 116.631 380.398C118.495 401.851 125.155 474.794 130.197 475.112C136.106 475.472 170.317 476.007 172.816 475.112C175.012 474.318 185.414 406.951 188.231 386.421C188.129 386.407 188.013 386.378 187.913 386.364C188.1 384.978 188.201 384.024 188.231 383.576Z"
            fill="white" />
    </mask>
    <g mask="url(#mask13_27_833)">
        <path d="M152.381 492.997L117.578 355.554" stroke="#263D74" stroke-width="1.21"
            stroke-miterlimit="10" />
    </g>
    <mask id="mask14_27_833" style="mask-type:luminance" maskUnits="userSpaceOnUse" x="116" y="374"
        width="73" height="102">
        <path
            d="M188.231 383.576C188.607 378.519 116.631 370.27 116.631 377.263C116.631 377.263 116.718 378.376 116.877 380.355C116.79 380.369 116.718 380.383 116.631 380.398C118.495 401.851 125.155 474.794 130.197 475.112C136.106 475.472 170.317 476.007 172.816 475.112C175.012 474.318 185.414 406.951 188.231 386.421C188.129 386.407 188.013 386.378 187.913 386.364C188.1 384.978 188.201 384.024 188.231 383.576Z"
            fill="white" />
    </mask>
    <g mask="url(#mask14_27_833)">
        <path d="M141.756 492.997L106.954 355.554" stroke="#263D74" stroke-width="1.21"
            stroke-miterlimit="10" />
    </g>
    <path
        d="M168.109 460.06C157.602 461.18 147.009 461.249 136.489 460.264L125.277 459.215C126.874 468.699 128.496 475.065 129.978 475.158C135.887 475.519 170.097 476.054 172.596 475.158C173.264 474.917 174.689 468.524 176.428 459.173L168.109 460.06Z"
        fill="#263D74" />
    <path
        d="M410.364 481.491C414.52 483.41 492.427 481.987 494.751 481.842C495.842 481.774 498.303 480.429 497.812 478.155C496.644 472.739 497.047 466.381 498.3 463.615C499.699 460.531 494.57 458.183 490.274 458.183C476.527 458.183 404.288 452.04 408.744 462.979C410.547 467.404 414.04 471.428 409.634 477.694C407.925 480.125 410.364 481.491 410.364 481.491Z"
        fill="#D4761D" />
    <path
        d="M409.936 477.223H497.63C496.726 472.205 497.092 466.63 498.185 463.904H409.146C410.949 467.866 413.561 471.659 409.936 477.223Z"
        fill="#DEE7F7" />
    <path
        d="M411.601 467.486C418.743 467.197 425.886 467.062 433.028 466.949C440.171 466.834 447.313 466.844 454.454 466.786C461.597 466.841 468.739 466.835 475.882 466.947L486.596 467.143C490.167 467.259 493.738 467.328 497.309 467.487C493.738 467.646 490.167 467.714 486.596 467.831L475.882 468.026C468.739 468.138 461.597 468.133 454.454 468.188C447.312 468.129 440.169 468.14 433.028 468.024C425.886 467.911 418.743 467.775 411.601 467.486Z"
        fill="white" />
    <path
        d="M411.601 471.057C418.743 470.768 425.886 470.633 433.028 470.521C440.171 470.405 447.313 470.416 454.454 470.357C461.597 470.412 468.739 470.406 475.882 470.518L486.596 470.714C490.167 470.83 493.738 470.898 497.309 471.058C493.738 471.217 490.167 471.285 486.596 471.401L475.882 471.597C468.739 471.708 461.597 471.703 454.454 471.758C447.312 471.699 440.169 471.71 433.028 471.594C425.886 471.481 418.743 471.346 411.601 471.057Z"
        fill="white" />
    <path
        d="M411.601 474.627C418.743 474.338 425.886 474.203 433.028 474.091C440.171 473.975 447.313 473.986 454.454 473.927C461.597 473.982 468.739 473.976 475.882 474.088L486.596 474.284C490.167 474.4 493.738 474.469 497.309 474.628C493.738 474.787 490.167 474.855 486.596 474.972L475.882 475.168C468.739 475.279 461.597 475.274 454.454 475.329C447.312 475.27 440.169 475.281 433.028 475.165C425.886 475.051 418.743 474.916 411.601 474.627Z"
        fill="white" />
    <path
        d="M411.935 438.259L412.195 458.861L495.05 458.86V439.139C495.05 438.234 494.32 437.501 493.415 437.5C482.538 437.491 425.563 436.626 413.562 436.62C412.657 436.618 411.935 437.353 411.935 438.259Z"
        fill="#B1D9B0" />
    <path opacity="0.7"
        d="M414.328 458.86H420.825L422.078 436.431C418.95 436.428 416.215 436.427 414.002 436.426L414.328 458.86Z"
        fill="white" />
    <path
        d="M426.14 442.416C426.14 442.416 425.474 452.67 426.14 453.073C426.806 453.475 491.362 453.958 491.806 453.073C492.25 452.188 492.261 443.597 491.806 442.416C491.14 440.687 426.918 440.526 426.14 442.416Z"
        fill="#C4F1C3" />
    <path
        d="M457.683 412.248C457.683 412.248 455.491 413.518 456.143 414.142C456.52 414.504 457.642 414.744 458.305 414.737C458.729 414.732 459.07 414.105 458.975 413.507L458.535 412.191L457.683 412.248Z"
        fill="#803B13" />
    <path
        d="M461.558 377.954C461.878 378.283 462.396 378.306 462.736 377.998C465.378 375.6 475.981 366.969 483.153 375.661C491.4 385.655 472.589 416.634 465.025 415.684C461.824 415.282 460.075 414.037 459.193 413.12C458.589 412.492 457.7 412.236 456.863 412.478C452.688 413.684 450.338 414.938 445.835 408.531C440.803 401.371 433.678 379.531 444.2 374.475C453.017 370.236 459.641 375.98 461.558 377.954Z"
        fill="#DB7929" />
    <path
        d="M457.695 367.728L461.299 365.882C461.299 365.882 463.002 380.602 462.612 379.49C460.476 373.41 458.575 369.391 457.695 367.728Z"
        fill="#DB7929" />
    <path
        d="M461.252 373.342C461.252 373.342 460.177 364.98 468.52 362.75C476.862 360.521 476.862 360.521 476.862 360.521C476.862 360.521 474.274 372.497 466.417 373.008C461.252 373.342 461.252 373.342 461.252 373.342Z"
        fill="#B1D9B0" />
    <path
        d="M493.031 421.477V431.495C493.031 434.719 490.419 437.331 487.195 437.331H418.505C415.297 437.331 414.113 435.319 414.098 432.111C414.069 425.896 413.153 416.246 416.354 415.56C420.681 414.633 469.766 414.128 487.705 415.661C490.723 415.92 493.031 418.449 493.031 421.477Z"
        fill="#D4761D" />
    <path
        d="M417.857 418.663C416.721 419.831 416.367 433.422 419.34 434.399C420.773 434.869 485.109 435.738 488.097 434.303C490.648 433.078 490.601 418.663 488.531 418.196C486.462 417.729 417.857 418.663 417.857 418.663Z"
        fill="#DB9023" />
    <path opacity="0.28"
        d="M388.919 448.149L401.715 435.908C401.715 435.908 394.93 435.621 395.692 434.952C396.117 434.578 397.267 431.957 398.199 429.713C396.28 429.749 394.501 429.791 392.902 429.839C391.194 432.523 387.668 438.24 388.991 437.683C390.713 436.96 395.692 437.246 395.692 437.246L388.488 448.149H388.919Z"
        fill="#D0E9F6" />
    <path
        d="M444.335 144.186C450.421 145.89 463.943 142.187 473.969 138.881C474.187 137.951 474.188 137.246 473.899 136.851C469.999 131.531 443.403 117.87 434.431 114.163C433.636 113.835 432.774 113.844 431.993 114.123C433.483 124.402 437.077 142.155 444.335 144.186Z"
        fill="#487FE0" />
    <path
        d="M444.335 144.186C437.078 142.154 433.483 124.402 431.994 114.122C431.347 114.354 430.755 114.767 430.314 115.357L429.844 115.985C429.844 115.985 410.213 141.617 414.953 146.395C419.693 151.174 452.998 174.018 457.749 166.804C461.862 160.557 472.566 144.885 473.969 138.881C463.943 142.187 450.421 145.89 444.335 144.186Z"
        fill="#C4DBFD" />
    <path
        d="M243.03 274.515C243.03 274.515 248.738 291.373 251.229 308.309C253.278 322.238 247.022 336.903 247.876 336.39C248.798 335.836 272.514 333.102 296.57 333.502C316.539 333.834 335.052 335.445 341.944 336.106C343.104 336.217 343.885 334.985 343.324 333.963C334.24 317.445 339.892 297.095 345.424 280.808L349.253 269.534L243.03 274.515Z"
        fill="#263D74" />
    <path
        d="M221.457 273.898C227.174 279.986 271.05 291.929 291.351 294.508C309.138 296.769 369.296 278.81 377.815 273.898C386.334 268.984 310.879 247.977 295.602 248.063C280.324 248.149 213.109 265.007 221.457 273.898Z"
        fill="#487FE0" />
    <path d="M377.814 273.898V303.514" stroke="#487FE0" stroke-width="0.9616" stroke-miterlimit="10" />
    <path
        d="M377.758 293.562C377.758 293.562 368.04 305.951 371.483 308.309C374.926 310.667 377.758 293.562 377.758 293.562Z"
        fill="#487FE0" />
    <path
        d="M378.066 295.484C378.066 295.484 373.581 310.577 377.649 311.505C381.718 312.433 378.066 295.484 378.066 295.484Z"
        fill="#487FE0" />
    <path
        d="M377.758 293.562C377.758 293.562 390.516 306.451 385.304 307.124C380.092 307.796 377.758 293.562 377.758 293.562Z"
        fill="#487FE0" />
    <path
        d="M375.018 293.562C375.018 292.048 376.245 290.82 377.759 290.82C379.273 290.82 380.5 292.048 380.5 293.562C380.5 295.076 379.273 296.303 377.759 296.303C376.244 296.303 375.018 295.076 375.018 293.562Z"
        fill="#263D74" />
    <path
        d="M219.165 369.037L220.584 378.473L239.999 383.801L258.879 347.102L242.998 337.76L219.165 369.037Z"
        fill="#D4761D" />
    <path
        d="M222.626 343.689C222.589 343.768 222.488 343.796 222.467 343.88C222.276 344.653 221.639 348.511 227.925 348.404C234.91 348.286 239.022 345.139 246.488 351.413C255.94 359.356 256.275 368.405 260.243 369.033C264.211 369.661 266.99 338.343 260.243 333.725C253.742 329.278 224.609 339.457 222.626 343.689Z"
        fill="#D4761D" />
    <path
        d="M263.825 318.963C263.825 318.963 214.785 344.428 223.308 345.139C231.832 345.849 249.351 336.802 253.14 343.669C256.928 350.535 254.797 369.95 260.716 369.002C266.635 368.055 277.763 312.584 263.825 318.963Z"
        fill="#DB9023" />
    <path
        d="M242.526 341.585C241.934 342.296 221.642 369.713 221.642 369.713L240.51 374.855L254.341 346.889V345.79C253.613 343.972 252.44 342.366 250.931 341.121L250.595 341.383L246.431 340.524L242.526 341.585Z"
        fill="#DB9023" />
    <g opacity="0.22">
        <path
            d="M378.639 234.191C375.696 236.539 373.241 239.593 370.528 242.209C367.79 244.849 365.11 247.525 362.231 250.013C361.378 250.75 362.54 252.296 363.451 251.595C369.404 247.018 376.306 241.962 380.286 235.463C380.953 234.375 379.515 233.493 378.639 234.191Z"
            fill="#263D74" />
        <path
            d="M394.448 267.334C393.104 267.272 391.737 267.701 390.457 268.077C390.089 268.186 389.717 268.292 389.346 268.405C389.209 268.229 388.991 268.119 388.738 268.196C387.891 268.454 387.373 269.003 386.923 269.747C386.646 270.206 386.894 270.908 387.442 271.024C388.695 271.289 389.926 270.882 391.143 270.566C392.432 270.233 393.823 269.901 394.943 269.16C395.757 268.619 395.438 267.38 394.448 267.334Z"
            fill="#263D74" />
        <path
            d="M240.941 246.433C234.093 243.39 227.92 239.471 223.794 233.002C223.288 232.209 222.202 232.897 222.562 233.722C225.735 241.009 232.032 247.209 240.079 248.48C241.209 248.658 242.204 246.994 240.941 246.433Z"
            fill="#263D74" />
        <path
            d="M204.871 272.122C203.277 271.637 201.483 271.744 199.828 271.762C198.15 271.779 196.419 271.702 194.795 272.163C193.877 272.423 193.876 273.764 194.795 274.024C196.419 274.485 198.15 274.407 199.828 274.425C201.483 274.443 203.277 274.55 204.871 274.065C205.829 273.773 205.83 272.413 204.871 272.122Z"
            fill="#263D74" />
        <path
            d="M226.793 302.5C222.156 308.046 218.037 314.728 214.531 321.046C214.163 321.709 215.066 322.468 215.608 321.877C220.483 316.565 225.166 309.814 227.819 303.097C228.041 302.532 227.176 302.041 226.793 302.5Z"
            fill="#263D74" />
        <path
            d="M370.289 325.533C369.439 324.069 368.273 322.764 367.317 321.36C366.351 319.942 365.464 318.476 364.643 316.969C364.261 316.267 363.279 316.883 363.591 317.584C364.931 320.593 366.743 324.144 369.365 326.247C369.858 326.643 370.649 326.152 370.289 325.533Z"
            fill="#263D74" />
        <path
            d="M295.597 222.941C295.616 221.975 294.19 222.002 294.114 222.941C294.006 224.3 293.904 225.659 293.762 227.014C293.632 228.246 293.417 229.505 293.681 230.724C293.862 231.562 295.036 231.453 295.273 230.724C295.652 229.552 295.548 228.235 295.541 227.014C295.534 225.655 295.57 224.299 295.597 222.941Z"
            fill="#263D74" />
        <path
            d="M265.468 238.025C264.84 236.614 263.998 235.358 263.591 233.85C263.341 232.923 261.74 233.071 261.86 234.084C262.079 235.94 262.562 237.87 264.018 239.144C264.835 239.86 265.891 238.977 265.468 238.025Z"
            fill="#263D74" />
        <path
            d="M334.639 239.466C333.906 239.718 333.409 240.448 332.903 241.014C332.34 241.641 331.832 242.322 331.304 242.98C330.545 243.926 331.883 245.281 332.65 244.326C333.2 243.639 333.778 242.967 334.297 242.257C334.771 241.607 335.395 240.925 335.489 240.115C335.539 239.691 335.018 239.336 334.639 239.466Z"
            fill="#263D74" />
        <path
            d="M396.206 299.684C395.972 299.353 395.661 299.317 395.287 299.244C394.93 299.173 394.593 299.095 394.233 299.046C393.959 299.009 393.71 298.907 393.486 298.733C392.6 298.039 391.497 299.095 392.24 299.979C392.683 300.506 393.319 300.966 393.975 301.192C394.622 301.417 395.84 301.272 396.23 300.615C396.406 300.321 396.402 299.961 396.206 299.684Z"
            fill="#263D74" />
    </g>
</svg>